<svg xmlns="http://www.w3.org/2000/svg" viewBox="0 0 170 116" height="116" width="170" style="background-color:transparent">
    <defs id="albiLogo">
        <linearGradient id="goldGradient">
            <stop stop-color="#8f5e25" offset="0"/>
            <stop stop-color="#fbf4a1" offset="0.2"/>
            <stop stop-color="#fbf4a1" offset="0.8"/>
            <stop stop-color="#8f5e25" offset="1"/>
        </linearGradient>
    </defs>
    <!--       fill="#111111"-->
    <!--        fill="url(#goldGradient)" -->
    <g id="cyber" transform="matrix(1.7,0,0,1.5,15,-30)" fill="rgb(255,255,255)">
        <g xmlns="http://www.w3.org/2000/svg">
            <polygon points="41.031,32.583 40.662,32.256 44.494,27.944 72.611,27.944 72.611,28.439 44.716,28.439  "/>
        </g>
        <circle xmlns="http://www.w3.org/2000/svg" cx="6.602" cy="54.198" r="3.597"/>
        <circle xmlns="http://www.w3.org/2000/svg" cx="60.471" cy="33.838" r="3.598"/>
        <circle xmlns="http://www.w3.org/2000/svg" cx="72.61" cy="28.192" r="3.598"/>
        <circle xmlns="http://www.w3.org/2000/svg" cx="82.961" cy="46.856" r="3.598"/>
        <circle xmlns="http://www.w3.org/2000/svg" cx="40.846" cy="32.419" r="3.597"/>
        <g xmlns="http://www.w3.org/2000/svg">
            <polygon points="51.381,51.248 51.012,50.92 54.844,46.608 82.961,46.608 82.961,47.104 55.065,47.104  "/>
        </g>
        <circle xmlns="http://www.w3.org/2000/svg" cx="51.196" cy="51.084" r="3.598"/>
        <g xmlns="http://www.w3.org/2000/svg">
            <polygon points="28.314,54.444 6.602,54.444 6.602,53.951 28.11,53.951 48.472,33.591 57.44,33.591 57.44,34.085 48.676,34.085     "/>
        </g>
        <circle xmlns="http://www.w3.org/2000/svg" cx="18.053" cy="60.347" r="3.598"/>
        <g xmlns="http://www.w3.org/2000/svg">
            <polygon points="31.253,60.594 18.053,60.594 18.053,60.1 31.049,60.1 51.408,39.741 74.563,39.741 74.563,40.235 51.612,40.235     "/>
        </g>
    </g>
    <g id="albiLetters" transform="matrix(3.2925721468862643,0,0,3.2925721468862643,-0.3708496940269687,50.53714240561017)" fill="rgb(255,255,255)">
        <path d="M14.78 18.86 q0.14 0.32 -0.07 0.65 t-0.57 0.33 l-13.32 0 q-0.18 0 -0.34 -0.09 t-0.24 -0.23 q-0.22 -0.32 -0.06 -0.66 l0.62 -1.46 q0.08 -0.2 0.26 -0.32 t0.38 -0.12 l9.32 0 l-3.28 -7.84 l-2.68 6.4 q-0.08 0.2 -0.25 0.31 t-0.39 0.11 l-1.68 0 q-0.38 0 -0.6 -0.32 q-0.08 -0.14 -0.1 -0.32 t0.04 -0.34 l4.06 -9.52 q0.08 -0.2 0.25 -0.32 t0.39 -0.12 l1.92 0 q0.22 0 0.39 0.12 t0.25 0.32 z M20.548 5 q0.28 0 0.49 0.21 t0.21 0.49 l0 13.4 q0 0.28 -0.21 0.49 t-0.49 0.21 l-1.52 0 q-0.28 0 -0.49 -0.21 t-0.21 -0.49 l0 -13.4 q0 -0.28 0.21 -0.49 t0.49 -0.21 l1.52 0 z M27.848 16.94 q0.3 0 0.5 0.21 t0.2 0.49 l0 1.46 q0 0.28 -0.2 0.49 t-0.5 0.21 l-4.66 0 q-0.3 0 -0.5 -0.21 t-0.2 -0.49 l0 -1.46 q0 -0.28 0.2 -0.49 t0.5 -0.21 l4.66 0 z M42.816 12.18 q1.04 0.64 1.52 1.84 q0.28 0.64 0.28 1.58 q0 1.46 -0.78 2.45 t-2.28 1.47 q-0.94 0.32 -2.22 0.32 l-6.38 0 q-0.28 0 -0.49 -0.21 t-0.21 -0.49 l0 -1.44 q0 -0.3 0.21 -0.51 t0.49 -0.21 l6.54 0 q1.16 0 1.72 -0.42 q0.48 -0.4 0.48 -1.09 t-0.5 -1.13 q-0.62 -0.54 -1.86 -0.54 l-6.38 0 q-0.28 0 -0.49 -0.21 t-0.21 -0.51 l0 -1.38 q0 -0.28 0.21 -0.49 t0.49 -0.21 l6.02 0 q0.86 0 1.34 -0.3 q0.34 -0.2 0.54 -0.58 q0.14 -0.28 0.14 -0.65 t-0.1 -0.67 q-0.08 -0.24 -0.28 -0.44 q-0.44 -0.5 -1.46 -0.5 l-6.2 0 q-0.28 0 -0.49 -0.21 t-0.21 -0.51 l0 -1.44 q0 -0.28 0.21 -0.49 t0.49 -0.21 l6.02 0 q2.48 0 3.82 1.4 q1.14 1.14 1.14 2.86 q0 1.84 -1.12 2.92 z M51.044 10.94 q0.3 0 0.5 0.21 t0.2 0.51 l0 7.48 q0 0.28 -0.2 0.49 t-0.5 0.21 l-1.52 0 q-0.28 0 -0.49 -0.21 t-0.21 -0.49 l0 -7.48 q0 -0.3 0.21 -0.51 t0.49 -0.21 l1.52 0 z M51.044 5 q0.3 0 0.5 0.21 t0.2 0.49 l0 3.7 q0 0.3 -0.2 0.51 t-0.5 0.21 l-1.52 0 q-0.28 0 -0.49 -0.21 t-0.21 -0.51 l0 -3.7 q0 -0.28 0.21 -0.49 t0.49 -0.21 l1.52 0 z"/>
    </g>
</svg>

